<?xml version="1.0" encoding="UTF-8"?>
<svg version="1.1" xmlns="http://www.w3.org/2000/svg" width="180" height="180">
<path d="M0 0 C5.29758098 1.53327064 10.59924528 3.01476733 15.9453125 4.37109375 C17.48421143 4.76228394 17.48421143 4.76228394 19.05419922 5.16137695 C21.06235575 5.66892423 23.07175873 6.17157152 25.08251953 6.66870117 C30.03697349 7.92863665 34.42108052 9.28661949 38.875 11.8125 C38.875 12.4725 38.875 13.1325 38.875 13.8125 C39.535 13.8125 40.195 13.8125 40.875 13.8125 C46.21629491 19.53284612 46.59623088 25.5306165 46.52197266 33.0144043 C46.53073425 34.10969452 46.53949585 35.20498474 46.54852295 36.33346558 C46.57043665 39.93495904 46.55599442 43.53521396 46.5390625 47.13671875 C46.54243217 49.64679703 46.54728605 52.15687371 46.55355835 54.66694641 C46.56091819 59.91814722 46.55072922 65.16902834 46.52685547 70.42016602 C46.49960572 76.48374945 46.50849513 82.54649321 46.5359875 88.61005658 C46.5614353 94.45782021 46.55871352 100.30526549 46.54407883 106.15305519 C46.54074318 108.63578217 46.54483738 111.11853059 46.55647659 113.60123253 C46.56916558 117.06766107 46.54983455 120.53247143 46.52197266 123.9987793 C46.53209381 125.02486801 46.54221497 126.05095673 46.55264282 127.10813904 C46.44885367 134.07283568 46.44885367 134.07283568 43.45956421 137.92585754 C38.96652466 141.20562097 35.32052113 141.28105684 29.875 140.8125 C25.46143357 139.93852645 21.14788379 138.76029106 16.8125 137.5625 C15.6152832 137.24619629 14.41806641 136.92989258 13.18457031 136.60400391 C8.1247055 135.26478894 3.08250893 133.89878074 -1.91796875 132.3515625 C-11.45169302 129.47710708 -18.63416322 130.03675527 -28.125 132.8125 C-29.80704545 133.28343239 -31.48935262 133.75343067 -33.171875 134.22265625 C-36.77154514 135.23695337 -40.36379793 136.27395498 -43.953125 137.32421875 C-49.82859368 139.03227969 -55.73302299 140.56518814 -61.68359375 141.98828125 C-63.76899991 142.48773721 -65.8477365 143.0182721 -67.91015625 143.60546875 C-74.99206161 145.45731405 -80.23108837 143.88645455 -87.125 141.8125 C-89.78349698 141.08212628 -92.44613045 140.36799948 -95.10888672 139.65332031 C-99.78669901 138.39400047 -104.45546978 137.10212157 -109.125 135.8125 C-110.26291992 135.49998291 -110.26291992 135.49998291 -111.42382812 135.18115234 C-113.36719002 134.64631955 -115.30867771 134.10468938 -117.25 133.5625 C-118.30445312 133.26859375 -119.35890625 132.9746875 -120.4453125 132.671875 C-122.83325977 131.90606101 -124.92821485 131.01074645 -127.125 129.8125 C-127.125 129.1525 -127.125 128.4925 -127.125 127.8125 C-127.785 127.8125 -128.445 127.8125 -129.125 127.8125 C-134.47038286 122.09029685 -134.84191913 116.09706563 -134.75610352 108.6105957 C-134.76325882 107.51530548 -134.77041412 106.42001526 -134.77778625 105.29153442 C-134.79462365 101.69001911 -134.77530187 98.0897569 -134.75390625 94.48828125 C-134.75473522 91.97820432 -134.75719564 89.46812744 -134.76121521 86.95805359 C-134.76406959 81.70684392 -134.74993602 76.45595672 -134.72192383 71.20483398 C-134.68982665 65.14133815 -134.68991058 59.07848519 -134.7071386 53.01494342 C-134.72301829 47.16719506 -134.71616531 41.31968324 -134.69920158 35.47194481 C-134.69401803 32.98922439 -134.69450365 30.50648545 -134.70074654 28.02376747 C-134.70619249 24.55751214 -134.68584339 21.09235134 -134.65844727 17.6262207 C-134.66497314 16.60013199 -134.67149902 15.57404327 -134.67822266 14.51686096 C-134.61866328 10.08839602 -134.57116422 7.53544619 -132.2061615 3.70329285 C-128.72016141 0.53616524 -125.80627723 -0.13452939 -121.125 -0.1875 C-116.84294814 0.5600726 -112.74342803 1.7843381 -108.59667969 3.06054688 C-104.60784524 4.27406032 -100.59886779 5.41510221 -96.58789062 6.55297852 C-94.40444067 7.17246377 -92.22331912 7.80023064 -90.04492188 8.43725586 C-78.14978537 11.84108627 -70.65509513 11.93727916 -58.625 8.5625 C-57.45324219 8.24925781 -56.28148438 7.93601562 -55.07421875 7.61328125 C-49.37711604 6.07231407 -43.7622578 4.39684437 -38.18066406 2.48242188 C-34.7501059 1.36443475 -31.25749934 0.52581246 -27.75 -0.3125 C-17.22889956 -2.86012321 -10.44152236 -3.1140105 0 0 Z " fill="#CAD5DD" transform="translate(134.125,24.1875)"/>
<path d="M0 0 C10.0904506 2.27262401 20.12705832 4.7235919 30.125 7.375 C31.19097412 7.64256104 32.25694824 7.91012207 33.35522461 8.18579102 C39.75842563 9.92154062 44.55904206 11.93970653 49 17 C50.7037667 20.4075334 50.16569723 24.30194518 50.17700195 28.05200195 C50.18357315 28.99035889 50.19014435 29.92871582 50.19691467 30.89550781 C50.21667211 34.00976638 50.22831539 37.12397668 50.23828125 40.23828125 C50.24235678 41.30036489 50.2464323 42.36244854 50.25063133 43.45671654 C50.27150197 49.07750632 50.2857997 54.69827162 50.29516602 60.3190918 C50.30623575 66.12999338 50.34063956 71.94051257 50.38033772 77.75127888 C50.40645996 82.21480531 50.41485393 86.67824001 50.41844749 91.14183617 C50.42332439 93.28407564 50.43496959 95.42631072 50.45348549 97.56847572 C50.47778436 100.56589849 50.47692874 103.56232373 50.4699707 106.55981445 C50.48278076 107.44571762 50.49559082 108.33162079 50.50878906 109.24436951 C50.47445739 113.29939067 50.29493427 115.49624 48.2066803 119.06306458 C46 121 46 121 42.22314453 121.43115234 C38.14547523 121.16298225 34.35563571 120.23623832 30.4296875 119.1015625 C29.74496368 118.90654144 29.06023987 118.71152039 28.35476685 118.5105896 C26.19187885 117.8918681 24.033572 117.25859384 21.875 116.625 C20.42084188 116.20739562 18.96641634 115.79072126 17.51171875 115.375 C11.63453862 113.68663728 5.80285715 111.93428572 0 110 C-0.33 90.2 -0.66 70.4 -1 50 C-1.99 51.32 -2.98 52.64 -4 54 C-7.0625 54.4375 -7.0625 54.4375 -10 54 C-12 51 -12 51 -12 47 C-12.66 47 -13.32 47 -14 47 C-12.86963623 50.12586629 -11.69300427 53.13325156 -10 56 C-7.3912295 57.2113453 -7.3912295 57.2113453 -5 57 C-5.65275732 59.98114942 -6.63934651 62.55453618 -7.9375 65.3125 C-9.21377499 68.09133987 -10.10349385 70.43785858 -10.8125 73.4375 C-12.51833152 78.55499456 -15.38040193 82.99345158 -19 87 C-19.99 87 -20.98 87 -22 87 C-22.71614583 85.27473958 -23.43229167 83.54947917 -24.1484375 81.82421875 C-25.06806692 79.73466068 -25.06806692 79.73466068 -27 77 C-27.1953125 74.08203125 -27.1953125 74.08203125 -27.125 70.8125 C-27.10695313 69.72582031 -27.08890625 68.63914062 -27.0703125 67.51953125 C-27.04710938 66.68808594 -27.02390625 65.85664062 -27 65 C-31.54711989 66.64692505 -35.03012164 69.02536168 -38.9140625 71.85546875 C-39.60242188 72.23316406 -40.29078125 72.61085938 -41 73 C-41.99 72.67 -42.98 72.34 -44 72 C-44.78042138 62.25340404 -44.78042138 62.25340404 -41.9375 57.6875 C-40.968125 56.800625 -39.99875 55.91375 -39 55 C-38.45730469 54.44183594 -37.91460937 53.88367188 -37.35546875 53.30859375 C-34.20324506 50.24175761 -32.67876715 49.07789131 -28.1875 48.5625 C-25 49 -25 49 -23 50 C-22.855625 48.783125 -22.71125 47.56625 -22.5625 46.3125 C-22.17219047 43.17329623 -21.67648144 40.0924866 -21 37 C-27.32979439 39.26064085 -29.72833872 43.46601976 -33 49 C-35.31 48.67 -37.62 48.34 -40 48 C-38.98187755 45.9637551 -37.96530388 43.93639045 -36.875 41.9375 C-35.79420664 39.89863452 -35.79420664 39.89863452 -36 37 C-34.78441406 36.52949219 -33.56882812 36.05898437 -32.31640625 35.57421875 C-30.73153844 34.94589837 -29.14691552 34.31696004 -27.5625 33.6875 C-26.35883789 33.2244043 -26.35883789 33.2244043 -25.13085938 32.75195312 C-24.36708984 32.44580078 -23.60332031 32.13964844 -22.81640625 31.82421875 C-22.10943604 31.54666748 -21.40246582 31.26911621 -20.67407227 30.9831543 C-18.64785357 30.04006391 -18.64785357 30.04006391 -18 27 C-20.47828283 27.42729014 -21.72952122 27.71825127 -23.5 29.5625 C-25 31 -25 31 -29 31 C-28.68352646 28.15173812 -28.12530218 26.20503993 -26.625 23.75 C-23.0243151 21.3495434 -19.85921382 21.57032443 -15.609375 21.33984375 C-12.13573025 20.88743792 -10.57559834 19.29715528 -8 17 C-5.3478352 16.0942607 -2.7556648 15.5604742 0 15 C0 10.05 0 5.1 0 0 Z " fill="#56ACEB" transform="translate(120,32)"/>
<path d="M0 0 C1.31183718 0.39463002 2.61152585 0.83119841 3.8984375 1.30078125 C10.14373328 3.45488502 16.53667994 5.00679589 22.9375 6.625 C25.36379783 7.24015356 27.78960684 7.85723948 30.21484375 8.4765625 C31.27823975 8.74549316 32.34163574 9.01442383 33.43725586 9.29150391 C36 10 36 10 38 11 C38 18.59 38 26.18 38 34 C38.99 34.33 39.98 34.66 41 35 C41.33 35.66 41.66 36.32 42 37 C42.825 37.474375 43.65 37.94875 44.5 38.4375 C47 40 47 40 48 43 C46.68 43 45.36 43 44 43 C44 44.98 44 46.96 44 49 C43.071875 49.144375 42.14375 49.28875 41.1875 49.4375 C36.25324405 50.24152431 36.25324405 50.24152431 32.9375 53.8125 C31.49701257 56.18233416 30.16004467 58.48656989 29 61 C29 59.68 29 58.36 29 57 C27.02 57 25.04 57 23 57 C23.495 60.465 23.495 60.465 24 64 C25.65 64.66 27.3 65.32 29 66 C29 66.66 29 67.32 29 68 C28.34 68 27.68 68 27 68 C27.99 69.32 28.98 70.64 30 72 C30.99 71.67 31.98 71.34 33 71 C38.10042083 70.82998597 42.99079922 70.89797583 48 72 C50 75 50 75 50 78 C51.32 78 52.64 78 54 78 C53.34 79.65 52.68 81.3 52 83 C51.34 83 50.68 83 50 83 C49.855625 84.27875 49.71125 85.5575 49.5625 86.875 C48.61721752 91.43916241 46.84106667 93.3310701 43.4375 96.4375 C37.57143197 102.35057178 37.88815147 108.52565716 37.90234375 116.4140625 C37.93457031 117.59742188 37.96679688 118.78078125 38 120 C30.25041936 119.42372708 22.90350398 117.66658801 15.40600586 115.72631836 C13.30953042 115.1867357 11.20887913 114.66627859 9.10742188 114.14648438 C7.75491279 113.80063287 6.40268838 113.45366579 5.05078125 113.10546875 C3.84075439 112.79762451 2.63072754 112.48978027 1.3840332 112.17260742 C-4.41481546 110.16323796 -8.72482143 107.21670798 -12 102 C-12.5830621 98.83239456 -12.54674545 95.71338558 -12.51757812 92.49975586 C-12.5245874 91.54960098 -12.53159668 90.59944611 -12.53881836 89.62049866 C-12.55640005 86.48498165 -12.54477561 83.35036966 -12.53125 80.21484375 C-12.53394463 78.03438646 -12.53782681 75.85393035 -12.54284668 73.67347717 C-12.54874179 69.10633897 -12.54017726 64.5395139 -12.52148438 59.97241211 C-12.49868159 54.11545648 -12.51182666 48.25923348 -12.53577423 42.40230465 C-12.55022014 37.90103116 -12.54563194 33.39993173 -12.53526306 28.89865303 C-12.53259315 26.73886593 -12.53587479 24.57906306 -12.54518127 22.41929436 C-12.55532822 19.4027194 -12.53987181 16.38733572 -12.51757812 13.37084961 C-12.52567505 12.47671356 -12.53377197 11.58257751 -12.54211426 10.66134644 C-12.459752 4.65276234 -12.459752 4.65276234 -10.19812012 1.44166565 C-6.87420268 -0.73836881 -3.79272009 -0.57236525 0 0 Z " fill="#56ACEC" transform="translate(22,37)"/>
<path d="M0 0 C0 4.95 0 9.9 0 15 C-2.21354167 15.94401042 -4.42708333 16.88802083 -6.640625 17.83203125 C-9.04009181 18.90788329 -9.04009181 18.90788329 -10.953125 20.61328125 C-13.57940142 22.3925334 -15.35568232 22.33180882 -18.5 22.375 C-23.03280986 22.61805833 -23.03280986 22.61805833 -26.625 25.375 C-28.08837262 27.99833259 -28.08837262 27.99833259 -29 31 C-25.35503155 29.73917581 -25.35503155 29.73917581 -22.4375 27.3125 C-21.963125 26.879375 -21.48875 26.44625 -21 26 C-18.8125 26.3125 -18.8125 26.3125 -17 27 C-17.53125 28.796875 -17.53125 28.796875 -19 31 C-21.5195954 32.2597977 -23.87336642 33.28771929 -26.5 34.25 C-27.18964844 34.518125 -27.87929687 34.78625 -28.58984375 35.0625 C-33.66095344 37 -33.66095344 37 -36 37 C-35.731875 37.70125 -35.46375 38.4025 -35.1875 39.125 C-34.96999265 42.46011275 -35.36830612 42.86550387 -37.4375 45.3125 C-38.283125 46.199375 -39.12875 47.08625 -40 48 C-36.75643424 48.75413353 -36.75643424 48.75413353 -33 48 C-31.11704911 45.85239472 -29.76315082 43.64827251 -28.359375 41.1640625 C-27 39 -27 39 -24 37 C-23.01 37 -22.02 37 -21 37 C-21.51958285 41.37934119 -22.05675742 45.68803391 -23 50 C-24.299375 49.835 -25.59875 49.67 -26.9375 49.5 C-32.57145652 49.45542756 -35.25142271 52.17994897 -39.15234375 55.95703125 C-42.52835571 59.68991551 -43.24137252 61.74166803 -43.125 66.6875 C-43.09792969 68.17830078 -43.09792969 68.17830078 -43.0703125 69.69921875 C-43.04710938 70.45847656 -43.02390625 71.21773438 -43 72 C-37.94429137 70.73607284 -34.741304 68.43695622 -30.83203125 65.14453125 C-30.22746094 64.76683594 -29.62289062 64.38914062 -29 64 C-28.01 64.33 -27.02 64.66 -26 65 C-26.04640625 65.79664062 -26.0928125 66.59328125 -26.140625 67.4140625 C-26.37072034 74.16900425 -26.21538279 77.73077151 -22 83 C-22 84.32 -22 85.64 -22 87 C-16.80032511 84.82130253 -14.50143246 80.90365797 -12 76 C-11.0821555 72.95890148 -10.38588023 69.92594813 -9.72265625 66.8203125 C-8.74987267 63.02382738 -7.14622805 60.25634601 -5 57 C-6.65 57 -8.3 57 -10 57 C-14 50.375 -14 50.375 -14 47 C-13.34 47 -12.68 47 -12 47 C-11.34 49.31 -10.68 51.62 -10 54 C-8.02 54 -6.04 54 -4 54 C-3.71125 53.360625 -3.4225 52.72125 -3.125 52.0625 C-2 50 -2 50 0 49 C0 69.13 0 89.26 0 110 C-3.465 110.99 -3.465 110.99 -7 112 C-8.48859394 112.45042667 -9.97579186 112.90551819 -11.4609375 113.3671875 C-20.21406128 116.05977188 -28.94725572 118.58420236 -37.88476562 120.59008789 C-41.37591752 121.37509786 -44.83715008 122.20918589 -48.28515625 123.16796875 C-48.97311279 123.3592334 -49.66106934 123.55049805 -50.36987305 123.74755859 C-52.25639498 124.27908322 -54.14002481 124.82084226 -56.0234375 125.36328125 C-59 126 -59 126 -62 125 C-61.34 125 -60.68 125 -60 125 C-60.10441406 123.81664062 -60.20882812 122.63328125 -60.31640625 121.4140625 C-61.09035432 108.78360429 -61.09035432 108.78360429 -58.1015625 103.89453125 C-56.511281 102.27594377 -54.8742132 100.70185091 -53.19140625 99.1796875 C-50.34025312 96.34378118 -49.51377298 93.76261043 -48.6328125 89.91015625 C-47.87261778 87.6154944 -46.76036227 86.61750565 -45 85 C-44.67 84.34 -44.34 83.68 -44 83 C-45.32 83 -46.64 83 -48 83 C-48.99 80.03 -48.99 80.03 -50 77 C-51.03640625 77 -52.0728125 77 -53.140625 77 C-58.42708333 77 -63.71354167 77 -69 77 C-69.66 75.68 -70.32 74.36 -71 73 C-70.34 73 -69.68 73 -69 73 C-69 72.34 -69 71.68 -69 71 C-70.98 70.34 -72.96 69.68 -75 69 C-75 66.69 -75 64.38 -75 62 C-73.96875 62.165 -72.9375 62.33 -71.875 62.5 C-68.03560967 62.4454768 -68.03560967 62.4454768 -66.48046875 60.21875 C-66.01253906 59.4865625 -65.54460937 58.754375 -65.0625 58 C-62.55250129 54.13637056 -62.55250129 54.13637056 -59.84765625 53.46875 C-57.625 53.5 -57.625 53.5 -54 54 C-54 52.02 -54 50.04 -54 48 C-52.68 48 -51.36 48 -50 48 C-52.056732 44.91490201 -53.67736584 43.55748476 -57 42 C-59.28344397 40.25783738 -59.93955219 39.43518089 -60.34057617 36.5480957 C-60.32486572 35.60023193 -60.30915527 34.65236816 -60.29296875 33.67578125 C-60.28330078 32.64775391 -60.27363281 31.61972656 -60.26367188 30.56054688 C-60.23853516 29.48869141 -60.21339844 28.41683594 -60.1875 27.3125 C-60.17396484 26.22904297 -60.16042969 25.14558594 -60.14648438 24.02929688 C-60.11110643 21.35236595 -60.06174189 18.67643162 -60 16 C-47.17407827 11.94304225 -34.32932761 8.19111432 -21.24804688 5.04248047 C-15.79366666 3.72593838 -10.43223967 2.27043116 -5.0871582 0.55957031 C-3 0 -3 0 0 0 Z " fill="#88C8F7" transform="translate(120,32)"/>
<path d="M0 0 C0.495 1.485 0.495 1.485 1 3 C2.3303125 2.87625 2.3303125 2.87625 3.6875 2.75 C7 3 7 3 9.3125 4.9375 C12.63651878 7.48849116 14.80660618 7.43974987 18.87109375 7.734375 C21.8063274 8.10060599 23.58394998 9.32734999 26 11 C27.4285709 11.74650885 28.86678799 12.47475387 30.3125 13.1875 C31.00988281 13.53167969 31.70726562 13.87585938 32.42578125 14.23046875 C32.94527344 14.48441406 33.46476562 14.73835938 34 15 C33.1328125 16.953125 33.1328125 16.953125 32 19 C29.875 19.75 29.875 19.75 28 20 C27.505 18.515 27.505 18.515 27 17 C25.68 17 24.36 17 23 17 C22.505 19.475 22.505 19.475 22 22 C22.99 22 23.98 22 25 22 C25 23.65 25 25.3 25 27 C23.35 27.66 21.7 28.32 20 29 C20.0825 30.2375 20.165 31.475 20.25 32.75 C20.2556929 35.96648632 20.18154041 36.75585945 18.1875 39.4375 C16 41 16 41 13 42 C12.26676204 44.01508358 12.26676204 44.01508358 12 46 C10.1328125 45.75 10.1328125 45.75 8 45 C6.8046875 43.1875 6.8046875 43.1875 5.875 41 C4.66200212 37.84237802 4.66200212 37.84237802 2 36 C2 38.64 2 41.28 2 44 C1.34 44 0.68 44 0 44 C-2.87613558 40.47673391 -5.04372355 37.5445522 -6.1875 33.125 C-6.455625 32.09375 -6.72375 31.0625 -7 30 C-7.99 29.505 -7.99 29.505 -9 29 C-9.28875 29.598125 -9.5775 30.19625 -9.875 30.8125 C-11 33 -11 33 -13 36 C-16 36.375 -16 36.375 -19 36 C-21 33 -21 33 -21 29 C-21.66 29 -22.32 29 -23 29 C-21.86963623 32.12586629 -20.69300427 35.13325156 -19 38 C-16.3912295 39.2113453 -16.3912295 39.2113453 -14 39 C-14.65275732 41.98114942 -15.63934651 44.55453618 -16.9375 47.3125 C-18.21377499 50.09133987 -19.10349385 52.43785858 -19.8125 55.4375 C-21.51833152 60.55499456 -24.38040193 64.99345158 -28 69 C-28.99 69 -29.98 69 -31 69 C-31.71614583 67.27473958 -32.43229167 65.54947917 -33.1484375 63.82421875 C-34.06806692 61.73466068 -34.06806692 61.73466068 -36 59 C-36.1953125 56.08203125 -36.1953125 56.08203125 -36.125 52.8125 C-36.10695313 51.72582031 -36.08890625 50.63914063 -36.0703125 49.51953125 C-36.04710938 48.68808594 -36.02390625 47.85664062 -36 47 C-40.54711989 48.64692505 -44.03012164 51.02536168 -47.9140625 53.85546875 C-48.60242188 54.23316406 -49.29078125 54.61085937 -50 55 C-50.99 54.67 -51.98 54.34 -53 54 C-53.78042138 44.25340404 -53.78042138 44.25340404 -50.9375 39.6875 C-49.968125 38.800625 -48.99875 37.91375 -48 37 C-47.45730469 36.44183594 -46.91460937 35.88367188 -46.35546875 35.30859375 C-43.20324506 32.24175761 -41.67876715 31.07789131 -37.1875 30.5625 C-34 31 -34 31 -32 32 C-31.855625 30.783125 -31.71125 29.56625 -31.5625 28.3125 C-31.17219047 25.17329623 -30.67648144 22.0924866 -30 19 C-36.32979439 21.26064085 -38.72833872 25.46601976 -42 31 C-44.31 30.67 -46.62 30.34 -49 30 C-47.98187755 27.9637551 -46.96530388 25.93639045 -45.875 23.9375 C-44.79420664 21.89863452 -44.79420664 21.89863452 -45 19 C-43.17662109 18.29423828 -43.17662109 18.29423828 -41.31640625 17.57421875 C-39.73153844 16.94589837 -38.14691552 16.31696004 -36.5625 15.6875 C-35.35883789 15.2244043 -35.35883789 15.2244043 -34.13085938 14.75195312 C-33.36708984 14.44580078 -32.60332031 14.13964844 -31.81640625 13.82421875 C-31.10943604 13.54666748 -30.40246582 13.26911621 -29.67407227 12.9831543 C-27.64785357 12.04006391 -27.64785357 12.04006391 -27 9 C-29.47828283 9.42729014 -30.72952122 9.71825127 -32.5 11.5625 C-34 13 -34 13 -38 13 C-37.68352646 10.15173812 -37.12530218 8.20503993 -35.625 5.75 C-32.02622623 3.35081748 -28.86458788 3.57080319 -24.6171875 3.33984375 C-21.13206003 2.88729735 -19.51863173 1.37470992 -17 -1 C-11.27657569 -3.86171216 -5.59976345 -2.79988172 0 0 Z " fill="#77B258" transform="translate(129,50)"/>
<path d="M0 0 C4.43139252 1.45421592 8.92585497 2.53764263 13.45605469 3.63525391 C18.79433831 4.93421035 24.03050396 6.43580202 29.2734375 8.07421875 C29.2734375 11.70421875 29.2734375 15.33421875 29.2734375 19.07421875 C19.70400658 17.02770963 10.17950201 14.86241523 0.7109375 12.38671875 C-0.11575439 12.17249268 -0.94244629 11.9582666 -1.79418945 11.73754883 C-7.60261569 10.19816556 -7.60261569 10.19816556 -8.7265625 9.07421875 C-13.86367335 8.4300027 -13.86367335 8.4300027 -18.32740021 10.34217358 C-20.02827488 12.44771329 -20.10695042 13.4372204 -20.12097168 16.11506653 C-20.13232147 16.93510666 -20.14367126 17.75514679 -20.15536499 18.60003662 C-20.15243439 19.4961969 -20.14950378 20.39235718 -20.14648438 21.31567383 C-20.15495392 22.26232407 -20.16342346 23.2089743 -20.17214966 24.18431091 C-20.19559204 27.32092646 -20.19653991 30.45705338 -20.1953125 33.59375 C-20.20241089 35.77227476 -20.21010942 37.95079763 -20.21838379 40.12931824 C-20.23184611 44.69995313 -20.23339001 49.27041526 -20.22753906 53.84106445 C-20.22164856 59.6957158 -20.25220009 65.54953628 -20.29265594 71.40402699 C-20.31852179 75.90537475 -20.3214112 80.40652236 -20.31776428 84.90793419 C-20.3194573 87.06608858 -20.32911719 89.22425204 -20.34690857 91.38233376 C-20.3690702 94.40364512 -20.35940916 97.42327394 -20.34179688 100.44458008 C-20.35506012 101.33466766 -20.36832336 102.22475525 -20.38198853 103.14181519 C-20.32514632 107.34331221 -20.07456306 110.2014276 -17.42581177 113.56758118 C-14.4855356 116.29976462 -14.4855356 116.29976462 -10.92333984 117.81005859 C-10.23487976 118.03070984 -9.54641968 118.25136108 -8.83709717 118.47869873 C-7.79238251 118.77348114 -7.79238251 118.77348114 -6.7265625 119.07421875 C-6.06601868 119.2680011 -5.40547485 119.46178345 -4.72491455 119.66143799 C-2.68281931 120.23814052 -0.63374958 120.77445214 1.421875 121.30078125 C2.1604776 121.49392914 2.8990802 121.68707703 3.6600647 121.88607788 C5.98850152 122.49446266 8.31833514 123.09724746 10.6484375 123.69921875 C12.99976349 124.30905335 15.35074975 124.9201228 17.70108032 125.53378296 C19.15616657 125.91347587 20.61185739 126.29086114 22.06820679 126.66567993 C27.04978974 127.96239487 27.04978974 127.96239487 29.2734375 129.07421875 C29.2734375 132.37421875 29.2734375 135.67421875 29.2734375 139.07421875 C23.33763504 139.41544804 18.64579046 138.21300381 13.0234375 136.38671875 C5.27701744 133.95580357 -2.48706256 131.75611128 -10.37011719 129.81176758 C-15.06221128 128.62429414 -19.3242326 127.0921956 -23.7265625 125.07421875 C-23.7265625 124.41421875 -23.7265625 123.75421875 -23.7265625 123.07421875 C-24.3865625 123.07421875 -25.0465625 123.07421875 -25.7265625 123.07421875 C-31.07194536 117.3520156 -31.44348163 111.35878438 -31.35766602 103.87231445 C-31.36482132 102.77702423 -31.37197662 101.68173401 -31.37934875 100.55325317 C-31.39618615 96.95173786 -31.37686437 93.35147565 -31.35546875 89.75 C-31.35629772 87.23992307 -31.35875814 84.72984619 -31.36277771 82.21977234 C-31.36563209 76.96856267 -31.35149852 71.71767547 -31.32348633 66.46655273 C-31.29138915 60.4030569 -31.29147308 54.34020394 -31.3087011 48.27666217 C-31.32458079 42.42891381 -31.31772781 36.58140199 -31.30076408 30.73366356 C-31.29558053 28.25094314 -31.29606615 25.7682042 -31.30230904 23.28548622 C-31.30775499 19.81923089 -31.28740589 16.35407009 -31.26000977 12.88793945 C-31.26653564 11.86185074 -31.27306152 10.83576202 -31.27978516 9.77857971 C-31.22070758 5.38593833 -31.16869537 2.80110334 -28.84947205 -1.01179504 C-20.71213245 -8.34830911 -9.10213709 -3.21322162 0 0 Z " fill="#CAD5DD" transform="translate(30.7265625,28.92578125)"/>
<path d="M0 0 C1.33804687 0.04060547 1.33804687 0.04060547 2.703125 0.08203125 C3.37859375 0.11683594 4.0540625 0.15164062 4.75 0.1875 C5.41 1.5075 6.07 2.8275 6.75 4.1875 C10.8203939 4.25891042 14.21282649 4.31446828 18.1875 3.375 C23.32845924 3.1044232 26.54293391 5.43048844 30.75 8.1875 C29.11587557 9.89590281 27.88093906 11.12203047 25.75 12.1875 C25.75 13.5075 25.75 14.8275 25.75 16.1875 C27.73 16.5175 29.71 16.8475 31.75 17.1875 C32.08 15.5375 32.41 13.8875 32.75 12.1875 C36.625 13.9375 36.625 13.9375 37.75 16.1875 C38.575 16.661875 39.4 17.13625 40.25 17.625 C42.75 19.1875 42.75 19.1875 43.75 22.1875 C42.43 22.1875 41.11 22.1875 39.75 22.1875 C39.75 24.1675 39.75 26.1475 39.75 28.1875 C38.3578125 28.4040625 38.3578125 28.4040625 36.9375 28.625 C32.00324405 29.42902431 32.00324405 29.42902431 28.6875 33 C27.24701257 35.36983416 25.91004467 37.67406989 24.75 40.1875 C24.75 38.8675 24.75 37.5475 24.75 36.1875 C22.77 36.1875 20.79 36.1875 18.75 36.1875 C19.08 38.4975 19.41 40.8075 19.75 43.1875 C21.4 43.8475 23.05 44.5075 24.75 45.1875 C24.75 45.8475 24.75 46.5075 24.75 47.1875 C24.09 47.1875 23.43 47.1875 22.75 47.1875 C23.74 48.5075 24.73 49.8275 25.75 51.1875 C26.74 50.8575 27.73 50.5275 28.75 50.1875 C33.85042083 50.01748597 38.74079922 50.08547583 43.75 51.1875 C45.75 54.1875 45.75 54.1875 45.75 57.1875 C47.07 57.1875 48.39 57.1875 49.75 57.1875 C49.09 58.8375 48.43 60.4875 47.75 62.1875 C47.09 62.1875 46.43 62.1875 45.75 62.1875 C45.646875 63.425 45.54375 64.6625 45.4375 65.9375 C43.7557803 73.83154247 36.25560649 80.850429 29.75 85.1875 C28.76 85.1875 27.77 85.1875 26.75 85.1875 C26.54913557 81.47150809 26.5980563 80.41541555 28.75 77.1875 C29.35228465 71.40958924 29.35228465 71.40958924 26.875 66.375 C26.17375 65.653125 25.4725 64.93125 24.75 64.1875 C22.75 61.1875 22.75 61.1875 23.125 58.75 C23.33125 57.904375 23.5375 57.05875 23.75 56.1875 C24.2069098 52.1866076 24.2069098 52.1866076 21.75 50.0625 C21.09 49.44375 20.43 48.825 19.75 48.1875 C19.75 47.5275 19.75 46.8675 19.75 46.1875 C19.16347656 45.93613281 18.57695313 45.68476562 17.97265625 45.42578125 C13.2828976 42.81303346 9.8214396 38.00070548 7.125 33.4375 C5.82248937 31.00690594 5.82248937 31.00690594 3.25 29.25 C-0.51984297 26.13987955 -1.96379558 23.20204567 -2.65234375 18.35546875 C-2.90747432 15.63291107 -3.10909434 12.91815455 -3.25 10.1875 C-4.054375 10.208125 -4.85875 10.22875 -5.6875 10.25 C-8.25 10.1875 -8.25 10.1875 -9.25 9.1875 C-9.5625 6.3125 -9.5625 6.3125 -9.25 3.1875 C-6.2749597 0.22620122 -4.11646725 -0.16249213 0 0 Z " fill="#5B9140" transform="translate(26.25,57.8125)"/>
<path d="M0 0 C4.455 0.99 4.455 0.99 9 2 C9.33 2.99 9.66 3.98 10 5 C11.3303125 4.87625 11.3303125 4.87625 12.6875 4.75 C16 5 16 5 18.3125 6.9375 C21.63651878 9.48849116 23.80660618 9.43974987 27.87109375 9.734375 C30.8063274 10.10060599 32.58394998 11.32734999 35 13 C36.4285709 13.74650885 37.86678799 14.47475387 39.3125 15.1875 C40.00988281 15.53167969 40.70726562 15.87585937 41.42578125 16.23046875 C42.20501953 16.61138672 42.20501953 16.61138672 43 17 C42.1328125 18.953125 42.1328125 18.953125 41 21 C38.875 21.75 38.875 21.75 37 22 C36.505 20.515 36.505 20.515 36 19 C34.68 19 33.36 19 32 19 C31.67 20.65 31.34 22.3 31 24 C31.99 24 32.98 24 34 24 C34 25.65 34 27.3 34 29 C32.35 29.66 30.7 30.32 29 31 C29.12375 32.85625 29.12375 32.85625 29.25 34.75 C29.2556929 37.96648632 29.18154041 38.75585945 27.1875 41.4375 C25 43 25 43 22 44 C21.26676204 46.01508358 21.26676204 46.01508358 21 48 C19.1328125 47.75 19.1328125 47.75 17 47 C15.8046875 45.1875 15.8046875 45.1875 14.875 43 C13.66200212 39.84237802 13.66200212 39.84237802 11 38 C11 40.64 11 43.28 11 46 C10.34 46 9.68 46 9 46 C6.12386442 42.47673391 3.95627645 39.5445522 2.8125 35.125 C2.544375 34.09375 2.27625 33.0625 2 32 C1.34 31.67 0.68 31.34 0 31 C0 20.77 0 10.54 0 0 Z " fill="#5B913E" transform="translate(120,48)"/>
<path d="M0 0 C0 3.63 0 7.26 0 11 C-6.68164414 13.33032651 -13.37310354 15.15770994 -20.25 16.8125 C-29.28084096 19.01919745 -38.22980796 21.41569651 -47.13574219 24.08325195 C-51.76381776 25.44945465 -56.203052 26.45269721 -61 27 C-60.67 23.37 -60.34 19.74 -60 16 C-54.33606779 13.77834358 -48.70384074 12.00684916 -42.8125 10.5 C-41.56412354 10.1752771 -41.56412354 10.1752771 -40.29052734 9.84399414 C-35.58473947 8.62961192 -30.86892172 7.49491495 -26.125 6.4375 C-20.63582365 5.21067259 -15.31856258 3.61085859 -9.97265625 1.8671875 C-6.75049195 0.92721316 -3.38403189 0 0 0 Z " fill="#DFE7ED" transform="translate(120,142)"/>
<path d="M0 0 C0 3.63 0 7.26 0 11 C-14.96434809 15.48399792 -29.96643274 19.6138186 -45.14648438 23.30273438 C-50.10297784 24.51386933 -55.05089285 25.75907343 -60 27 C-60 23.37 -60 19.74 -60 16 C-58.68128906 15.62488281 -57.36257812 15.24976563 -56.00390625 14.86328125 C-54.19006357 14.34649663 -52.37626475 13.82955808 -50.5625 13.3125 C-49.60835205 13.04066895 -48.6542041 12.76883789 -47.67114258 12.48876953 C-42.52258086 11.01848759 -37.38221431 9.52559919 -32.25219727 7.99194336 C-24.61416067 5.70965431 -16.94251266 3.67492352 -9.1953125 1.796875 C-1.99019608 0 -1.99019608 0 0 0 Z " fill="#DFE7EC" transform="translate(120,21)"/>
<path d="M0 0 C0.33 0.99 0.66 1.98 1 3 C1.7425 3.04125 2.485 3.0825 3.25 3.125 C6 4 6 4 8.3125 6.5625 C10.4600944 10.93722933 10.55311312 13.18001421 10 18 C8.8125 20 8.8125 20 7 21 C4.5 21.5 4.5 21.5 2 21 C0.3125 18.6875 0.3125 18.6875 -1 16 C-1.66 15.01 -2.32 14.02 -3 13 C-6.3 13.33 -9.6 13.66 -13 14 C-12.81014205 3.83396976 -12.81014205 3.83396976 -9.875 0.8125 C-6.46985564 -0.1498234 -3.52157599 -0.20715153 0 0 Z " fill="#5B9243" transform="translate(148,110)"/>
<path d="M0 0 C3.3 0.33 6.6 0.66 10 1 C12 4 12 4 12 7 C13.32 7 14.64 7 16 7 C15.34 8.65 14.68 10.3 14 12 C13.34 12 12.68 12 12 12 C11.855625 13.27875 11.71125 14.5575 11.5625 15.875 C10.1825238 22.35264947 5.70987917 26.58506434 1 31 C0.67 31 0.34 31 0 31 C0 20.77 0 10.54 0 0 Z " fill="#76B157" transform="translate(60,108)"/>
<path d="M0 0 C0.66 0 1.32 0 2 0 C2 6.93 2 13.86 2 21 C2.66 21.33 3.32 21.66 4 22 C0.26513121 22.5745952 -3.21293268 23 -7 23 C-7.66 21.68 -8.32 20.36 -9 19 C-8.34 19 -7.68 19 -7 19 C-7 18.34 -7 17.68 -7 17 C-8.98 16.34 -10.96 15.68 -13 15 C-13 12.69 -13 10.38 -13 8 C-11.96875 8.165 -10.9375 8.33 -9.875 8.5 C-6.04325305 8.41410097 -6.04325305 8.41410097 -4.26953125 6.21875 C-3.22709482 4.75676508 -2.22281835 3.26669416 -1.26171875 1.75 C-0.84535156 1.1725 -0.42898437 0.595 0 0 Z " fill="#56ABE6" transform="translate(58,86)"/>
<path d="M0 0 C0.66 0 1.32 0 2 0 C2.66 2.31 3.32 4.62 4 7 C5.98 7 7.96 7 10 7 C10.28875 6.360625 10.5775 5.72125 10.875 5.0625 C12 3 12 3 14 2 C14 21.8 14 41.6 14 62 C13.67 62 13.34 62 13 62 C12.67 43.85 12.34 25.7 12 7 C11.34 8.98 10.68 10.96 10 13 C9.67 12.01 9.34 11.02 9 10 C7.35 10 5.7 10 4 10 C0 3.375 0 3.375 0 0 Z " fill="#7FC3F6" transform="translate(106,79)"/>
<path d="M0 0 C3 1 3 1 4 3 C5.2375 3.7115625 5.2375 3.7115625 6.5 4.4375 C9 6 9 6 10 9 C8.68 9 7.36 9 6 9 C6 10.98 6 12.96 6 15 C4.02 15.33 2.04 15.66 0 16 C0 10.72 0 5.44 0 0 Z " fill="#77B262" transform="translate(60,71)"/>
<path d="M0 0 C0.66 0 1.32 0 2 0 C2.66 2.31 3.32 4.62 4 7 C5.98 7 7.96 7 10 7 C10.33 6.01 10.66 5.02 11 4 C11.66 4 12.32 4 13 4 C12.01 6.97 11.02 9.94 10 13 C9.67 12.01 9.34 11.02 9 10 C7.35 10 5.7 10 4 10 C0 3.375 0 3.375 0 0 Z " fill="#83C2CC" transform="translate(106,79)"/>
<path d="M0 0 C4.875 1.75 4.875 1.75 6 4 C6.804375 4.474375 7.60875 4.94875 8.4375 5.4375 C11 7 11 7 13 10 C12.505 9.731875 12.01 9.46375 11.5 9.1875 C9.12337698 7.98621876 9.12337698 7.98621876 6.98828125 7.375 C4.87590582 6.70753487 2.94693997 6.06034717 1 5 C0 2.3125 0 2.3125 0 0 Z " fill="#5A9767" transform="translate(150,106)"/>
<path d="M0 0 C0.598125 0.226875 1.19625 0.45375 1.8125 0.6875 C1.1875 2.5625 1.1875 2.5625 -0.1875 4.6875 C-3.3125 5.9375 -3.3125 5.9375 -6.1875 6.6875 C-5.78066505 4.32785727 -5.28935661 2.82815912 -3.875 0.875 C-2.1875 -0.3125 -2.1875 -0.3125 0 0 Z " fill="#85C5E0" transform="translate(101.1875,58.3125)"/>
<path d="M0 0 C1.875 0.25 1.875 0.25 4 1 C5.25 3.0625 5.25 3.0625 6 5 C4.35 4.67 2.7 4.34 1 4 C0.67 2.68 0.34 1.36 0 0 Z " fill="#5B9557" transform="translate(142,101)"/>
<path d="M0 0 C0.66 0 1.32 0 2 0 C2 1.32 2 2.64 2 4 C2.99 4.33 3.98 4.66 5 5 C5 5.66 5 6.32 5 7 C3.68 6.67 2.36 6.34 1 6 C0.67 4.02 0.34 2.04 0 0 Z " fill="#5A965E" transform="translate(136,99)"/>
<path d="M0 0 C0.66 0 1.32 0 2 0 C2.33 2.64 2.66 5.28 3 8 C2.01 8 1.02 8 0 8 C0 5.36 0 2.72 0 0 Z " fill="#599A7C" transform="translate(151,79)"/>
<path d="M0 0 C2.475 0.99 2.475 0.99 5 2 C5 2.99 5 3.98 5 5 C3.35 4.67 1.7 4.34 0 4 C0 2.68 0 1.36 0 0 Z " fill="#5B9453" transform="translate(150,106)"/>
</svg>
